<?xml version="1.0" encoding="UTF-8"?>
<svg id="Layer_1" data-name="Layer 1" xmlns="http://www.w3.org/2000/svg" viewBox="0 0 544.85 208.1">
  <path d="M540.82,143.63c-4.32-9.18-11.27-16.03-20.06-21.1-14.54-8.38-28.03-7.65-36.11-10.71-4.32-1.63-7.73-5.21-10-9.3-6.76-12.14-14.22-23.17-24.1-33.23-14.88-15.14-32.28-26.58-51.82-34.52-54.09-21.99-112.71-18.72-167,1.39l-31.84,11.8c-11.35,4.2-28.52,8.55-40.5,6.29-2.48-6.57-7.72-10.57-11.05-16.42-7.7-13.5-16.37-25.95-28.78-35.57-1.93-1.5-4.61-3.16-6.61-1.69-2.19,1.61-2.81,4.77-3.43,7.3-2.43,9.93-3.52,19.85-5.35,30.14-8.73,1.27-16.95,3.9-25.05,7.81-7.74-5.67-21.99-15.93-30.23-18.62-11.24-3.67,2.47,38.49,4.44,43.13-4.3,8.62-6.41,17.79-5.73,27.29.01.2.04.4.05.6l1.96,7.54c.47.52,1.07,1.55.77,2.27-2.07.27-4.42.64-6.38.54-2.14-.43-4.73.31-6.87.39l-4.45.17c-6.03.24-12.09.61-18.32,1.77-4.48.83-8.77,2.38-11.76,5.84-2.53,2.93-3.36,6.69-1.84,10.42,1.11,2.72,4.44,5.5,8.23,5.75,7.55.51,14.86-.04,22.13-.04l152.94.04h290.88c4.39,0,8.82.08,13.34.3,11.35.55,23.19,5.16,29.41,15.15,6.13,9.85,4.72,22.37-3.95,30.3-7.71,7.06-18.35,8.68-28,4.82-3.39-1.36-6.72-2.19-10.2-1.58-4.1.72-7.31,3.46-8.57,6.65-1.61,4.06-.82,8.25,1.74,11.56,2.69,3.48,6.6,5.64,11.2,6.67,14.55,3.25,29.96.42,42.56-7.5,18.84-11.83,28.35-34.41,18.35-55.64Z"/>
  <path d="M49.42,105.55s-.04-.01-.05-.02c.09.11.18.22.28.31l-.02-.09c-.07-.08-.14-.14-.2-.2Z"/>
  <path d="M47.66,98.21l-.03-.11s0,.52.06,1.3c.02,0,.05,0,.07,0-.04-.39-.07-.79-.11-1.18Z"/>
  <path d="M47.81,100.63c.15,1.22.42,2.67.9,3.8.46-.8-.07-3.03-.9-3.8Z"/>
  <path d="M47.76,99.4s-.05,0-.07,0c.03.36.06.78.12,1.23.84.77,1.36,3,.9,3.8.18.43.4.8.65,1.11.02,0,.04,0,.05.02.06.05.13.12.2.2l-1.96-7.54c.03.39.06.79.11,1.18Z"/>
</svg>