<?xml version="1.0" encoding="UTF-8"?>
<svg id="Layer_1" data-name="Layer 1" xmlns="http://www.w3.org/2000/svg" viewBox="0 0 250.63 267.84">
  <defs>
    <style>
      .cls-1 {
        fill: #6e5242;
      }
    </style>
  </defs>
  <path class="cls-1" d="M34.92,241.35c19.31,14.63,44.27,22.04,68.35,25.13,29.54,3.79,63.17-.32,90.47-12.27,7.96-3.48,15.24-7.7,22.03-12.79.12-.08.07-.36-.03-.42-.09-.05-.2-.24-.3-.26.18-.02.29-.18.32-.36.21.13.8.46,1.1.24,2.77-2.06,5.06-4.21,7.64-6.52.91.41,1.56.96,2.57,1.09-.48-.92-1.39-.82-2.22-1.5,3.82-3.63,7.14-7.73,10.15-12.11.09-.14.85.36.97.27.17-.14.32-.19.26-.41-.05-.16-.46-.77-.34-.99,1.63-2.81,8.32-14.01,8.51-16.76,0-.13.11-.25.07-.4-.04-.16-.05-.41,0-.55,3.73-6.25,4.17-14.14,5.45-21.2.85-4.7.66-9.08.71-13.76.17-17.26-5.19-34.56-13.95-50.18,3.07-5.51,4.75-11.28,6.55-17.28,1.39-4.66.1-9.31,1.12-13.82,3.87-17.27,6.61-34.5,5.38-52.2-.5-7.15-1.31-14.15-3.49-21.11-2.29-7.34-6.23-14.81-15.23-12.85-13.47,2.93-31.02,21.18-40.66,31.33-9.83,10.34-18.91,20.75-28.09,31.57-2.61-1.08-5.21-.62-7.38-1.16-3.07-.76-6.2-1.11-9.41-1.35l-6.59-.48c-8.94-.65-18-.46-26.9.08l-6.5.4c-3.24.2-6.39.55-9.49,1.33-2.16.55-4.8.07-7.37,1.11l-24.86-28.16c-5.34-6.05-10.9-11.53-16.83-17.03C39.78,11.33,29.72,2.77,20.22.41,10.57-1.98,6.49,6.53,4.27,14.25c-1.93,6.73-2.79,13.29-3.22,20.34C0,52.05,2.22,69.15,6.59,86.06c.42,1.63,0,3.39.01,4.83.1,9.35,3.13,18.55,7.53,26.59C5.4,133.08.13,150.55,0,168.37c-.03,4.49.19,8.77.87,13.18,1.09,7.03,1.84,14.83,5.49,20.95.07.12-.03.35,0,.49.04.22-.22.34-.12.58,2.14,4.76,4.04,9.56,7.05,13.57.66.93.8,2.27,1.58,3.8"/>
</svg>