<?xml version="1.0" encoding="UTF-8"?>
<svg id="Layer_1" data-name="Layer 1" xmlns="http://www.w3.org/2000/svg" viewBox="0 0 300.55 301.73">
  <defs>
    <style>
      .cls-1 {
        fill: #475569;
      }
    </style>
  </defs>
  <path class="cls-1" d="M236.31,151.74c-21.53-8.26-24.54-19.58-40.62-29.02-15.21-8.93-33.15-9.77-49.69-3.82-19.18,6.9-33.31,22.44-37.67,42.33-.99,4.52-1.54,8.88-1.92,13.69-1.92,24.01-13.69,31.03-19.67,55.45-4.46,18.23-2.38,36.23,8.44,51.63,10.35,14.74,28.01,22.2,45.77,19,24.36-3.89,42.8-21.67,56.51-41.53,22.84,6.44,48.96,7.77,69.76-4.6,25.29-14.95,29.29-45.94,14.35-69.73-10.54-16.79-27.29-26.52-45.26-33.41Z"/>
  <path class="cls-1" d="M86.51,131.51c14.84.53,27.88-7.84,33.57-21.66,9.83-23.89-1.46-52.02-22.06-66.21-7.15-4.92-15.27-7.74-23.81-8.01-13.87-.44-26.31,6.97-32.39,19.45-11.42,23.44-.31,52.75,20.12,67.73,7.28,5.34,15.63,8.38,24.57,8.7Z"/>
  <path class="cls-1" d="M211.46,71.31c8.17-25.22-2.07-55.99-25.9-67.69-14.06-6.91-30.48-3.73-41.17,7.79-22.08,23.77-13.97,69.98,16.85,84.49,20.78,9.78,42.97-2.22,50.22-24.59Z"/>
  <path class="cls-1" d="M295.05,71.14c-8.38-16.98-27.14-26.41-44.95-17.29-7.6,3.89-13.25,10.13-17.13,17.83-8.04,15.99-7.26,35.23,1.7,50.58,4.42,7.57,10.96,13.43,19.37,16.17,17.32,5.64,33.66-4.29,41.31-20.49,6.98-14.78,6.97-32.06-.3-46.8Z"/>
  <path class="cls-1" d="M80.28,192.64c4.13-21.91-10.98-44.68-30.94-53.38-8.26-3.6-16.83-4.68-25.36-2.62-12.05,2.91-20.91,12.29-23.25,24.43-1.47,7.63-.69,15.13,2.02,22.53,5.19,14.16,15.63,25.59,29.46,31.44,6.53,2.76,13.14,4,20.2,3.29,14.15-1.42,25.21-11.64,27.86-25.68Z"/>
</svg>